<?xml version="1.0" standalone="no"?>
<!DOCTYPE svg PUBLIC "-//W3C//DTD SVG 20010904//EN"
 "http://www.w3.org/TR/2001/REC-SVG-20010904/DTD/svg10.dtd">
<svg version="1.0" xmlns="http://www.w3.org/2000/svg"
 width="260.000000pt" height="260.000000pt" viewBox="0 0 260.000000 260.000000"
 preserveAspectRatio="xMidYMid meet">
<metadata>
Created by potrace 1.11, written by Peter Selinger 2001-2013
</metadata>
<g transform="translate(0.000000,260.000000) scale(0.100000,-0.100000)"
fill="#000000" stroke="none">
<path d="M566 2514 c-14 -14 -16 -137 -16 -1209 0 -1072 2 -1195 16 -1209 14
-14 95 -16 739 -16 644 0 725 2 739 16 14 14 16 137 16 1209 0 1072 -2 1195
-16 1209 -14 14 -95 16 -739 16 -644 0 -725 -2 -739 -16z m1394 -763 c0 -534
-3 -680 -12 -683 -7 -2 -167 -3 -355 -3 l-342 1 -170 210 c-93 115 -229 281
-300 369 l-130 160 -1 313 0 312 655 0 655 0 0 -679z m-1224 -208 c198 -245
350 -432 389 -478 23 -27 187 -230 366 -450 178 -220 329 -406 336 -413 7 -7
13 -15 13 -18 0 -2 -268 -4 -595 -4 l-595 0 0 730 c0 402 2 730 4 730 2 0 39
-44 82 -97z m1224 -962 c-1 -340 -2 -384 -15 -367 -8 11 -30 38 -48 60 -47 56
-202 247 -347 426 -47 58 -89 110 -95 116 -5 7 -17 20 -25 30 -8 11 -32 40
-53 65 -20 25 -37 48 -37 51 0 3 140 6 310 6 l310 0 0 -387z"/>
</g>
</svg>
